# This file uses centimeters as units for non-parametric coordinates.

mtllib plasticBag.mtl
g default
v -2.303143 2.043100 2.110417
v 2.303143 2.043100 2.110417
v -3.084314 8.211727 3.084314
v 3.084314 8.211727 3.084314
v -3.084314 8.211727 -3.084314
v 3.084314 8.211727 -3.084314
v -2.303143 2.043100 -2.110417
v 2.303143 2.043100 -2.110417
v -1.470999 2.043100 2.110417
v -1.470999 2.043100 -2.110417
v -1.969927 8.211727 -3.084314
v -1.969927 8.211727 3.084314
v 1.416457 2.043100 2.110417
v 1.896886 8.211727 3.084314
v 1.896886 8.211727 -3.084314
v 1.416457 2.043100 -2.110417
v -3.084314 8.211727 1.893294
v -1.969927 8.211727 1.893293
v 1.896886 8.211727 1.893294
v 3.084314 8.211727 1.893294
v 2.303143 2.043100 1.295471
v 1.416457 2.043100 1.295471
v -1.470999 2.043100 1.295471
v -2.303143 2.043100 1.295471
v -2.303143 2.043100 -1.178910
v -1.470999 2.043100 -1.178910
v 1.416457 2.043100 -1.178910
v 2.303143 2.043100 -1.178910
v 3.084314 8.211727 -1.722943
v 1.896886 8.211727 -1.722943
v -1.969927 8.211727 -1.722943
v -3.084314 8.211727 -1.722943
v -2.952378 7.169876 2.919828
v -1.885660 7.169876 2.919828
v 1.815744 7.169876 2.919828
v 2.952378 7.169876 2.919828
v 2.952378 7.169876 1.792324
v 2.952378 7.169876 -1.631059
v 2.952378 7.169876 -2.919828
v 1.815744 7.169876 -2.919828
v -1.885660 7.169876 -2.919828
v -2.952378 7.169876 -2.919828
v -2.952378 7.169876 -1.631059
v -2.952378 7.169876 1.792324
v -3.084314 10.327189 1.893294
v -1.969927 10.327189 1.893293
v -1.969927 10.327189 -1.722943
v -3.084314 10.327189 -1.722943
v -3.084314 10.327189 3.084314
v -1.969927 10.327189 3.084314
v -1.969927 10.327189 -3.084314
v -3.084314 10.327189 -3.084314
v 3.084314 10.327189 -1.722943
v 1.896886 10.327189 -1.722943
v 1.896886 10.327189 1.893294
v 3.084314 10.327189 1.893294
v 1.896886 10.327189 3.084314
v 3.084314 10.327189 3.084314
v 1.896886 10.327189 -3.084314
v 3.084314 10.327189 -3.084314
v -3.084314 9.968443 1.893294
v -3.084314 9.968443 3.084314
v -1.969927 9.968443 3.084314
v -1.969927 9.968443 1.893293
v -1.969927 9.968443 -1.722943
v -1.969927 9.968443 -3.084314
v -3.084314 9.968443 -3.084314
v -3.084314 9.968443 -1.722943
v 3.084314 9.944479 -1.722943
v 3.084314 9.944479 -3.084314
v 1.896886 9.944479 -3.084314
v 1.896886 9.944479 -1.722943
v 1.896886 9.944479 1.893294
v 1.896886 9.944479 3.084314
v 3.084314 9.944479 3.084314
v 3.084314 9.944479 1.893294
v -3.084314 8.486868 1.893294
v -3.084314 8.486868 3.084314
v -1.969927 8.486868 3.084314
v -1.969927 8.486868 1.893293
v -1.969927 8.486868 -1.722943
v -1.969927 8.486868 -3.084314
v -3.084314 8.486868 -3.084314
v -3.084314 8.486868 -1.722943
v 3.084314 8.449368 -1.722943
v 3.084314 8.449368 -3.084314
v 1.896886 8.449368 -3.084314
v 1.896886 8.449368 -1.722943
v 1.896886 8.449368 1.893294
v 1.896886 8.449368 3.084314
v 3.084314 8.449368 3.084314
v 3.084314 8.449368 1.893294
v -2.391032 2.737122 2.219988
v -1.527133 2.737122 2.219988
v 1.470510 2.737122 2.219988
v 2.391032 2.737122 2.219988
v 2.391032 2.737122 1.362731
v 2.391032 2.737122 -1.240118
v 2.391032 2.737122 -2.219988
v 1.470510 2.737122 -2.219988
v -1.527133 2.737122 -2.219988
v -2.391032 2.737122 -2.219988
v -2.391032 2.737122 -1.240118
v -2.391032 2.737122 1.362731
v 1.896886 8.211727 -1.722943
v -1.969927 8.211727 -1.722943
v -1.969927 8.211727 1.893293
v 1.896886 8.211727 1.893294
v -1.969927 8.211727 3.084314
v 1.896886 8.211727 3.084314
v -1.969927 8.211727 -3.084314
v 1.896886 8.211727 -3.084314
v -1.679916 8.223607 -2.621667
v 1.606875 8.223607 -2.621667
v -1.679916 8.223607 -1.682498
v -1.679916 8.223607 1.844881
v -1.679916 8.223607 2.621667
v 1.606875 8.223607 2.621667
v 1.606875 8.223607 1.844882
v 1.606875 8.223607 -1.682498
v -1.679916 5.372678 -2.621667
v 1.606875 5.372678 -2.621667
v -1.679916 5.372678 -1.464502
v -1.679916 5.372678 1.609299
v -1.679916 5.372678 2.621667
v 1.606875 5.372678 2.621667
v 1.606875 5.372678 1.609300
v 1.606875 5.372678 -1.464502
vt 0.597994 0.737449
vt 0.604129 0.737449
vt 0.604129 0.377859
vt 0.597994 0.377859
vt 0.714887 0.737449
vt 0.714887 0.377859
vt 0.714887 0.737449
vt 0.714887 0.377859
vt 0.604129 0.737449
vt 0.604129 0.377859
vt 0.597994 0.737449
vt 0.597994 0.377859
vt 0.624761 0.278879
vt 0.629294 0.232097
vt 0.783012 0.232097
vt 0.787138 0.278879
vt 0.578667 0.232097
vt 0.571281 0.278879
vt 0.648584 0.033056
vt 0.765458 0.033056
vt 0.840881 0.232097
vt 0.848267 0.278879
vt 0.787138 0.289549
vt 0.624761 0.289549
vt 0.610091 0.033056
vt 0.571281 0.289549
vt 0.651604 0.001893
vt 0.762710 0.001893
vt 0.809456 0.033056
vt 0.848267 0.289549
vt 0.615011 0.001893
vt 0.624761 0.356683
vt 0.571281 0.356683
vt 0.804537 0.001893
vt 0.848267 0.356683
vt 0.787138 0.356683
vt 0.624761 0.373868
vt 0.571281 0.373868
vt 0.848267 0.373868
vt 0.787138 0.373868
vt 0.782151 0.654845
vt 0.786277 0.608063
vt 0.939995 0.608063
vt 0.944528 0.654845
vt 0.728408 0.608063
vt 0.721022 0.654845
vt 0.803831 0.409022
vt 0.920705 0.409022
vt 0.990622 0.608063
vt 0.998008 0.654845
vt 0.944528 0.667199
vt 0.782151 0.667199
vt 0.759832 0.409022
vt 0.721022 0.667199
vt 0.806579 0.377859
vt 0.917685 0.377859
vt 0.959198 0.409022
vt 0.998008 0.667199
vt 0.764752 0.377859
vt 0.782151 0.733726
vt 0.721022 0.733726
vt 0.954278 0.377859
vt 0.998008 0.733726
vt 0.944528 0.733726
vt 0.782151 0.749834
vt 0.721022 0.749834
vt 0.998008 0.749834
vt 0.944528 0.749834
vt 0.460123 0.601365
vt 0.460123 0.438988
vt 0.476231 0.438988
vt 0.476231 0.601365
vt 0.460123 0.377859
vt 0.476231 0.377859
vt 0.460123 0.654845
vt 0.476231 0.654845
vt 0.393597 0.438988
vt 0.393597 0.377859
vt 0.393597 0.654845
vt 0.393597 0.601365
vt 0.381242 0.438988
vt 0.381242 0.377859
vt 0.381242 0.654845
vt 0.381242 0.601365
vt 0.357923 0.593716
vt 0.357923 0.431339
vt 0.375107 0.431339
vt 0.375107 0.593716
vt 0.357923 0.377859
vt 0.375107 0.377859
vt 0.357923 0.654845
vt 0.375107 0.654845
vt 0.290789 0.431339
vt 0.290789 0.377859
vt 0.290789 0.654845
vt 0.290789 0.593716
vt 0.280118 0.431339
vt 0.280118 0.377859
vt 0.280118 0.654845
vt 0.280118 0.593716
vt 0.295070 0.658837
vt 0.295070 0.701007
vt 0.156154 0.710796
vt 0.156154 0.658837
vt 0.295070 0.859395
vt 0.156154 0.848817
vt 0.295070 0.894274
vt 0.156154 0.894274
vt 0.441242 0.658837
vt 0.441242 0.693716
vt 0.302326 0.704294
vt 0.302326 0.658837
vt 0.441242 0.852104
vt 0.302326 0.842315
vt 0.441242 0.894274
vt 0.302326 0.894274
vt 0.601429 0.781254
vt 0.601429 0.910908
vt 0.490324 0.910908
vt 0.490324 0.781254
vt 0.638022 0.910908
vt 0.638022 0.781254
vt 0.490324 0.948273
vt 0.601429 0.948273
vt 0.448497 0.910908
vt 0.448497 0.781254
vt 0.601429 0.741440
vt 0.490324 0.741440
vt 0.638022 0.948273
vt 0.638022 0.741440
vt 0.448497 0.948273
vt 0.448497 0.741440
vt 0.541820 0.431339
vt 0.591859 0.431339
vt 0.591859 0.593716
vt 0.541820 0.593716
vt 0.541820 0.377859
vt 0.591859 0.377859
vt 0.591859 0.654845
vt 0.541820 0.654845
vt 0.535685 0.593716
vt 0.482367 0.593716
vt 0.482367 0.431339
vt 0.535685 0.431339
vt 0.482367 0.654845
vt 0.535685 0.654845
vt 0.482367 0.377859
vt 0.535685 0.377859
vt 0.100354 0.593716
vt 0.100354 0.431339
vt 0.100354 0.431339
vt 0.100354 0.593716
vt 0.113376 0.433512
vt 0.113376 0.591900
vt 0.100354 0.377859
vt 0.113376 0.398633
vt 0.100354 0.654845
vt 0.113376 0.634071
vt 0.273983 0.377859
vt 0.260961 0.398633
vt 0.273983 0.654845
vt 0.260961 0.634071
vt 0.273983 0.431339
vt 0.260961 0.433512
vt 0.273983 0.593716
vt 0.260961 0.591900
vt 0.273983 0.593716
vt 0.273983 0.654845
vt 0.645341 0.903818
vt 0.645341 0.741440
vt 0.645341 0.741440
vt 0.645341 0.903818
vt 0.945480 0.753826
vt 0.945480 0.814954
vt 0.945480 0.814954
vt 0.945480 0.753826
vt 0.149577 0.894274
vt 0.001992 0.894274
vt 0.001992 0.842315
vt 0.001992 0.704294
vt 0.001992 0.658836
vt 0.149577 0.658836
vt 0.149577 0.704294
vt 0.149577 0.842315
vt 0.052031 0.278879
vt 0.055814 0.232097
vt 0.222016 0.232097
vt 0.225660 0.278879
vt 0.007916 0.232097
vt 0.001992 0.278879
vt 0.071913 0.033056
vt 0.206514 0.033056
vt 0.273054 0.232097
vt 0.278978 0.278879
vt 0.033122 0.033056
vt 0.052031 0.291233
vt 0.001992 0.291233
vt 0.074434 0.001893
vt 0.204087 0.001893
vt 0.247848 0.033056
vt 0.278978 0.289549
vt 0.225660 0.289549
vt 0.037068 0.001893
vt 0.052031 0.357759
vt 0.001992 0.357759
vt 0.243901 0.001893
vt 0.278978 0.356683
vt 0.225660 0.356683
vt 0.052031 0.373868
vt 0.001992 0.373868
vt 0.278978 0.373868
vt 0.225660 0.373868
vt 0.506758 0.143664
vt 0.340556 0.143664
vt 0.336773 0.096882
vt 0.510401 0.096882
vt 0.491256 0.342704
vt 0.356655 0.342704
vt 0.286734 0.096882
vt 0.292658 0.143664
vt 0.557796 0.143664
vt 0.563720 0.096882
vt 0.359176 0.373868
vt 0.488829 0.373868
vt 0.317864 0.342704
vt 0.532590 0.342704
vt 0.286734 0.084528
vt 0.336773 0.084528
vt 0.510401 0.086211
vt 0.563720 0.086211
vt 0.321810 0.373868
vt 0.528643 0.373868
vt 0.286734 0.018001
vt 0.336773 0.018001
vt 0.510401 0.019077
vt 0.563720 0.019077
vt 0.286734 0.001893
vt 0.336773 0.001893
vt 0.510401 0.001893
vt 0.563720 0.001893
vt 0.792053 0.753826
vt 0.792053 0.901410
vt 0.653137 0.901410
vt 0.653137 0.753826
vt 0.799308 0.901410
vt 0.799308 0.753825
vt 0.938225 0.753825
vt 0.938225 0.901410
vn 0.000000 -0.147030 0.989132
vn 0.000000 -0.155947 0.987765
vn 0.000000 -0.155947 0.987765
vn 0.000000 -0.147833 0.989012
vn 0.000000 -0.155947 -0.987765
vn 0.000000 -0.155947 -0.987765
vn 0.000000 -0.147030 -0.989132
vn 0.000000 -0.147833 -0.989012
vn 0.000000 -1.000000 0.000000
vn 0.000000 -1.000000 0.000000
vn 0.000000 -1.000000 0.000000
vn 0.000000 -1.000000 0.000000
vn 0.994840 -0.101452 0.000000
vn 0.992077 -0.125633 0.000000
vn 0.992077 -0.125633 0.000000
vn 0.994829 -0.101565 0.000000
vn -0.995129 -0.098581 0.000000
vn -0.992077 -0.125633 0.000000
vn -0.992077 -0.125633 0.000000
vn -0.995141 -0.098458 0.000000
vn 0.000000 -1.000000 0.000000
vn 0.000000 -1.000000 0.000000
vn 0.000000 -0.121195 -0.992629
vn 0.000000 -0.155947 -0.987765
vn 0.000000 1.000000 0.000000
vn 0.000000 1.000000 0.000000
vn 0.000000 1.000000 0.000000
vn 0.000000 1.000000 0.000000
vn 0.000000 -0.155947 0.987765
vn 0.000000 -0.121195 0.992629
vn 0.000000 -0.155947 0.987765
vn 0.000000 -0.124999 0.992157
vn 0.000000 1.000000 0.000000
vn 0.000000 1.000000 0.000000
vn 0.000000 1.000000 0.000000
vn 0.000000 1.000000 0.000000
vn 0.000000 -0.155947 -0.987765
vn 0.000000 -0.124999 -0.992157
vn 0.000000 -1.000000 0.000000
vn 0.000000 -1.000000 0.000000
vn 0.000000 1.000000 0.000000
vn 0.000000 1.000000 0.000000
vn 0.000000 1.000000 0.000000
vn 0.000000 1.000000 0.000000
vn 0.992077 -0.125633 0.000000
vn 0.994988 -0.099995 0.000000
vn 0.000000 -1.000000 0.000000
vn 0.000000 -1.000000 0.000000
vn 0.000000 -1.000000 0.000000
vn 0.000000 -1.000000 0.000000
vn -0.992077 -0.125633 0.000000
vn -0.995297 -0.096871 0.000000
vn 0.000000 -1.000000 0.000000
vn 0.000000 -1.000000 0.000000
vn 0.000000 -1.000000 0.000000
vn 0.000000 -1.000000 0.000000
vn 0.992077 -0.125633 0.000000
vn 0.994988 -0.099995 0.000000
vn 0.000000 1.000000 0.000000
vn 0.000000 1.000000 0.000000
vn 0.000000 1.000000 0.000000
vn 0.000000 1.000000 0.000000
vn -0.992077 -0.125633 0.000000
vn -0.995297 -0.096872 0.000000
vn 0.000000 -0.155947 0.987765
vn 0.000000 -0.155947 0.987765
vn 0.000000 -0.155947 0.987765
vn 0.000000 -0.155947 0.987765
vn 0.992077 -0.125633 0.000000
vn 0.992077 -0.125633 -0.000000
vn 0.992077 -0.125633 -0.000000
vn 0.992077 -0.125633 0.000000
vn 0.000000 -0.155947 -0.987765
vn 0.000000 -0.155947 -0.987765
vn 0.000000 -0.155947 -0.987765
vn 0.000000 -0.155947 -0.987765
vn -0.992077 -0.125633 0.000000
vn -0.992077 -0.125633 0.000000
vn -0.992077 -0.125633 0.000000
vn -0.992077 -0.125633 0.000000
vn 1.000000 0.000000 0.000000
vn 1.000000 0.000000 0.000000
vn 1.000000 0.000000 0.000000
vn 1.000000 0.000000 0.000000
vn -1.000000 0.000000 0.000000
vn -1.000000 0.000000 0.000000
vn -1.000000 0.000000 0.000000
vn -1.000000 0.000000 0.000000
vn 0.000000 0.000000 1.000000
vn 0.000000 0.000000 1.000000
vn 0.000000 0.000000 1.000000
vn 0.000000 0.000000 1.000000
vn 1.000000 0.000000 0.000000
vn 1.000000 0.000000 0.000000
vn -1.000000 0.000000 0.000000
vn -1.000000 0.000000 0.000000
vn 1.000000 -0.000000 0.000000
vn 1.000000 -0.000000 0.000000
vn 0.000000 0.000000 -1.000000
vn 0.000000 0.000000 -1.000000
vn 0.000000 0.000000 -1.000000
vn 0.000000 0.000000 -1.000000
vn -1.000000 0.000000 0.000000
vn -1.000000 0.000000 0.000000
vn -1.000000 0.000000 0.000000
vn -1.000000 0.000000 0.000000
vn -1.000000 0.000000 0.000000
vn -1.000000 0.000000 0.000000
vn 1.000000 0.000000 0.000000
vn 1.000000 0.000000 0.000000
vn 1.000000 0.000000 0.000000
vn 1.000000 0.000000 0.000000
vn -1.000000 0.000000 0.000000
vn -1.000000 0.000000 0.000000
vn 0.000000 0.000000 1.000000
vn 0.000000 0.000000 1.000000
vn 0.000000 0.000000 1.000000
vn 0.000000 0.000000 1.000000
vn 1.000000 0.000000 0.000000
vn 1.000000 0.000000 0.000000
vn -1.000000 0.000000 0.000000
vn -1.000000 0.000000 0.000000
vn 1.000000 0.000000 0.000000
vn 1.000000 0.000000 0.000000
vn 0.000000 0.000000 -1.000000
vn 0.000000 0.000000 -1.000000
vn 0.000000 0.000000 -1.000000
vn 0.000000 0.000000 -1.000000
vn -1.000000 -0.000000 0.000000
vn -1.000000 0.000000 0.000000
vn 0.000000 0.000000 1.000000
vn 0.000000 0.000000 1.000000
vn 1.000000 0.000000 0.000000
vn 1.000000 -0.000000 0.000000
vn 1.000000 -0.000000 0.000000
vn 1.000000 0.000000 0.000000
vn 0.000000 0.000000 -1.000000
vn 0.000000 0.000000 -1.000000
vn -1.000000 0.000000 0.000000
vn -1.000000 -0.000000 0.000000
vn 1.000000 0.000000 0.000000
vn 1.000000 0.000000 0.000000
vn 0.000000 0.000000 -1.000000
vn 0.000000 0.000000 -1.000000
vn -1.000000 0.000000 0.000000
vn -1.000000 0.000000 0.000000
vn -1.000000 0.000000 0.000000
vn -1.000000 0.000000 0.000000
vn 0.000000 0.000000 1.000000
vn 0.000000 0.000000 1.000000
vn 1.000000 0.000000 0.000000
vn 1.000000 0.000000 0.000000
vn 1.000000 0.000000 0.000000
vn 1.000000 -0.000000 0.000000
vn 1.000000 -0.000000 0.000000
vn 1.000000 0.000000 0.000000
vn -1.000000 0.000000 0.000000
vn -1.000000 0.000000 0.000000
vn -1.000000 0.000000 0.000000
vn -1.000000 0.000000 0.000000
vn 0.000000 -0.155947 0.987765
vn 0.000000 -0.155947 0.987765
vn 0.000000 -0.155947 0.987765
vn 0.000000 -0.155947 0.987765
vn 0.992077 -0.125633 0.000000
vn 0.992077 -0.125633 0.000000
vn 0.992077 -0.125633 0.000000
vn 0.992077 -0.125633 0.000000
vn 0.000000 -0.155947 -0.987765
vn 0.000000 -0.155947 -0.987765
vn 0.000000 -0.155947 -0.987765
vn 0.000000 -0.155947 -0.987765
vn -0.992077 -0.125633 0.000000
vn -0.992077 -0.125633 0.000000
vn -0.992077 -0.125633 0.000000
vn -0.992077 -0.125633 0.000000
vn 0.000000 0.000000 0.000000
vn 0.000000 0.000000 0.000000
vn 0.000000 0.000000 0.000000
vn 0.000000 0.000000 0.000000
vn 0.000000 -0.000000 0.000000
vn 0.000000 -0.000000 0.000000
vn 0.000000 -1.000000 0.000000
vn 0.000000 -0.000000 0.000000
vn 0.000000 0.000000 0.000000
vn 0.000000 0.000000 0.000000
vn 0.000000 0.000000 0.000000
vn 0.000000 0.000000 0.000000
vn 0.000000 0.000000 0.000000
vn 0.000000 0.000000 0.000000
vn 0.000000 0.000000 0.000000
vn 0.000000 0.000000 0.000000
vn 0.000000 0.000000 0.000000
vn 0.000000 0.000000 0.000000
vn 0.000000 0.000000 0.000000
vn 0.000000 0.000000 0.000000
vn 0.000000 -0.000000 0.000000
vn 0.000000 -1.000000 0.000000
vn 0.000000 -0.000000 0.000000
vn 0.000000 -0.000000 0.000000
vn 0.000000 0.000000 0.000000
vn 0.000000 0.000000 0.000000
vn 0.000000 0.000000 0.000000
vn 0.000000 0.000000 0.000000
vn 0.000000 0.000000 0.000000
vn 0.000000 0.000000 0.000000
vn 0.000000 0.000000 0.000000
vn 0.000000 0.000000 0.000000
vn 0.000000 1.000000 0.000000
vn 0.000000 1.000000 0.000000
vn 0.000000 1.000000 0.000000
vn 0.000000 1.000000 0.000000
vn 0.000000 1.000000 0.000000
vn 0.000000 1.000000 0.000000
vn 0.000000 1.000000 0.000000
vn 0.000000 1.000000 0.000000
vn 0.000000 0.999671 -0.025669
vn 0.000000 0.999671 -0.025669
vn 0.000000 0.999671 -0.025669
vn 0.000000 0.999671 -0.025669
vn -0.040929 0.999162 0.000000
vn -0.040929 0.999162 0.000000
vn -0.040929 0.999162 0.000000
vn -0.040929 0.999162 0.000000
vn -0.040929 0.999162 0.000000
vn -0.040929 0.999162 0.000000
vn -0.040929 0.999162 0.000000
vn -0.040929 0.999162 0.000000
vn 0.000000 0.999671 0.025669
vn 0.000000 0.999671 0.025669
vn 0.000000 0.999671 0.025669
vn 0.000000 0.999671 0.025669
vn 0.040929 0.999162 0.000000
vn 0.040929 0.999162 0.000000
vn 0.040929 0.999162 0.000000
vn 0.040929 0.999162 0.000000
vn 0.040929 0.999162 0.000000
vn 0.040929 0.999162 0.000000
vn 0.040929 0.999162 0.000000
vn 0.040929 0.999162 0.000000
vn 0.000000 0.000000 1.000000
vn 0.000000 0.000000 1.000000
vn 0.000000 0.000000 1.000000
vn 0.000000 0.000000 1.000000
vn 1.000000 0.000000 0.000000
vn 1.000000 0.000000 0.000000
vn 1.000000 0.000000 0.000000
vn 1.000000 0.000000 0.000000
vn 1.000000 0.000000 0.000000
vn 1.000000 0.000000 0.000000
vn 1.000000 -0.000000 0.000000
vn 1.000000 -0.000000 0.000000
vn 0.000000 0.000000 -1.000000
vn 0.000000 0.000000 -1.000000
vn 0.000000 0.000000 -1.000000
vn 0.000000 0.000000 -1.000000
vn -1.000000 0.000000 0.000000
vn -1.000000 -0.000000 0.000000
vn -1.000000 -0.000000 0.000000
vn -1.000000 0.000000 0.000000
vn -1.000000 -0.000000 0.000000
vn -1.000000 -0.000000 0.000000
vn -1.000000 0.000000 0.000000
vn -1.000000 0.000000 0.000000
s 1
g plasticBag
usemtl aiStandardSurface2SG
f 12/185/1 34/186/2 35/187/3 14/188/4
s 2
f 40/213/5 41/214/6 11/215/7 15/216/8
s 3
f 22/117/9 23/118/10 26/119/11 27/120/12
s 4
f 20/13/13 37/14/14 38/15/15 29/16/16
s 5
f 32/41/17 43/42/18 44/43/19 17/44/20
s 3
f 25/123/21 26/119/11 23/118/10 24/124/22
s 2
f 5/219/23 11/215/7 41/214/6 42/220/24
s 6
f 45/133/25 46/134/26 47/135/27 48/136/28
s 1
f 33/189/29 34/186/2 12/185/1 3/190/30
f 14/188/4 35/187/3 36/193/31 4/194/32
s 7
f 53/141/33 54/142/34 55/143/35 56/144/36
s 2
f 39/221/37 40/213/5 15/216/8 6/222/38
s 3
f 21/127/39 22/117/9 27/120/12 28/128/40
s 6
f 49/137/41 50/138/42 46/134/26 45/133/25
s 7
f 56/144/36 55/143/35 57/147/43 58/148/44
s 4
f 36/17/45 37/14/14 20/13/13 4/18/46
s 3
f 13/122/47 22/117/9 21/127/39 2/130/48
f 9/121/49 23/118/10 22/117/9 13/122/47
f 24/124/22 23/118/10 9/121/49 1/129/50
s 5
f 17/44/20 44/43/19 33/49/51 3/50/52
s 3
f 7/131/53 10/125/54 26/119/11 25/123/21
f 27/120/12 26/119/11 10/125/54 16/126/55
f 28/128/40 27/120/12 16/126/55 8/132/56
s 4
f 29/16/16 38/15/15 39/21/57 6/22/58
s 7
f 59/145/59 54/142/34 53/141/33 60/146/60
s 6
f 48/136/28 47/135/27 51/139/61 52/140/62
s 5
f 42/45/63 43/42/18 32/41/17 5/46/64
s 1
f 93/195/65 94/191/66 34/186/2 33/189/29
f 35/187/3 34/186/2 94/191/66 95/192/67
f 36/193/31 35/187/3 95/192/67 96/200/68
s 4
f 96/25/69 97/19/70 37/14/14 36/17/45
f 38/15/15 37/14/14 97/19/70 98/20/71
f 39/21/57 38/15/15 98/20/71 99/29/72
s 2
f 99/226/73 100/217/74 40/213/5 39/221/37
f 100/217/74 101/218/75 41/214/6 40/213/5
f 42/220/24 41/214/6 101/218/75 102/225/76
s 5
f 102/53/77 103/47/78 43/42/18 42/45/63
f 44/43/19 43/42/18 103/47/78 104/48/79
f 33/49/51 44/43/19 104/48/79 93/57/80
s 8
f 64/69/81 65/70/82 47/71/83 46/72/84
s 5
f 68/60/85 61/64/86 45/68/87 48/65/88
s 1
f 62/205/89 63/204/90 50/209/91 49/210/92
s 8
f 63/75/93 64/69/81 46/72/84 50/76/94
s 5
f 61/64/86 62/63/95 49/67/96 45/68/87
s 8
f 65/70/82 66/73/97 51/74/98 47/71/83
s 2
f 66/234/99 67/233/100 52/237/101 51/238/102
s 5
f 67/61/103 68/60/85 48/65/88 52/66/104
s 12
f 72/85/105 73/86/106 55/87/107 54/88/108
s 4
f 76/32/109 69/36/110 53/40/111 56/37/112
s 12
f 73/86/106 74/89/113 57/90/114 55/87/107
s 1
f 74/208/115 75/207/116 58/211/117 57/212/118
s 4
f 75/33/119 76/32/109 56/37/112 58/38/120
s 12
f 71/91/121 72/85/105 54/88/108 59/92/122
s 4
f 69/36/110 70/35/123 60/39/124 53/40/111
s 2
f 70/236/125 71/235/126 59/239/127 60/240/128
s 5
f 77/51/129 78/58/130 62/63/95 61/64/86
s 1
f 78/197/131 79/196/132 63/204/90 62/205/89
s 8
f 79/79/133 80/80/134 64/69/81 63/75/93
f 81/77/135 82/78/136 66/73/97 65/70/82
s 2
f 82/228/137 83/227/138 67/233/100 66/234/99
s 5
f 83/54/139 84/52/140 68/60/85 67/61/103
s 4
f 85/23/141 86/30/142 70/35/123 69/36/110
s 2
f 86/230/143 87/229/144 71/235/126 70/236/125
s 12
f 87/95/145 88/96/146 72/85/105 71/91/121
f 89/93/147 90/94/148 74/89/113 73/86/106
s 1
f 90/202/149 91/201/150 75/207/116 74/208/115
s 4
f 91/26/151 92/24/152 76/32/109 75/33/119
s 5
f 17/44/20 3/50/52 78/58/130 77/51/129
s 1
f 3/190/30 12/185/1 79/196/132 78/197/131
s 8
f 12/83/153 18/84/154 80/80/134 79/79/133
f 18/84/154 31/81/155 81/77/135 80/80/134
f 31/81/155 11/82/156 82/78/136 81/77/135
s 2
f 11/215/7 5/219/23 83/227/138 82/228/137
s 5
f 5/46/64 32/41/17 84/52/140 83/54/139
f 32/41/17 17/44/20 77/51/129 84/52/140
s 4
f 29/16/16 6/22/58 86/30/142 85/23/141
s 2
f 6/222/38 15/216/8 87/229/144 86/230/143
s 12
f 15/99/157 30/100/158 88/96/146 87/95/145
f 30/100/158 19/97/159 89/93/147 88/96/146
f 19/97/159 14/98/160 90/94/148 89/93/147
s 1
f 14/188/4 4/194/32 91/201/150 90/202/149
s 4
f 4/18/46 20/13/13 92/24/152 91/26/151
f 20/13/13 29/16/16 85/23/141 92/24/152
s 1
f 1/203/161 9/198/162 94/191/66 93/195/65
f 95/192/67 94/191/66 9/198/162 13/199/163
f 96/200/68 95/192/67 13/199/163 2/206/164
s 4
f 2/31/165 21/27/166 97/19/70 96/25/69
f 98/20/71 97/19/70 21/27/166 28/28/167
f 99/29/72 98/20/71 28/28/167 8/34/168
s 2
f 16/224/169 100/217/74 99/226/73 8/232/170
f 10/223/171 101/218/75 100/217/74 16/224/169
f 102/225/76 101/218/75 10/223/171 7/231/172
s 5
f 7/59/173 25/55/174 103/47/78 102/53/77
f 104/48/79 103/47/78 25/55/174 24/56/175
f 93/57/80 104/48/79 24/56/175 1/62/176
s off
f 31/149/177 18/150/178 107/151/179 106/152/180
f 19/169/181 30/170/182 105/171/183 108/172/184
f 18/5/185 12/2/186 109/9/187 107/7/188
f 12/2/189 14/3/190 110/10/191 109/9/192
f 14/3/193 19/6/194 108/8/195 110/10/196
f 11/173/197 31/174/198 106/175/199 111/176/200
f 30/167/201 15/168/202 112/161/203 105/165/204
f 15/4/205 11/1/206 111/11/207 112/12/208
f 122/177/209 121/178/210 123/179/211 124/180/212 125/181/213 126/182/214 127/183/215 128/184/216
f 112/161/217 111/157/218 113/158/219 114/162/220
s 16
f 111/157/221 106/152/222 115/154/223 113/158/224
f 106/152/222 107/151/225 116/153/226 115/154/223
f 107/151/225 109/155/227 117/156/228 116/153/226
s off
f 109/155/229 110/159/230 118/160/231 117/156/232
s 17
f 110/159/233 108/163/234 119/164/235 118/160/236
f 108/163/234 105/165/237 120/166/238 119/164/235
f 105/165/237 112/161/239 114/162/240 120/166/238
s off
f 114/241/241 113/242/242 121/243/243 122/244/244
s 18
f 113/101/245 115/102/246 123/103/247 121/104/248
f 115/102/246 116/105/249 124/106/250 123/103/247
f 116/105/249 117/107/251 125/108/252 124/106/250
s off
f 117/245/253 118/246/254 126/247/255 125/248/256
s 19
f 118/109/257 119/110/258 127/111/259 126/112/260
f 119/110/258 120/113/261 128/114/262 127/111/259
f 120/113/261 114/115/263 122/116/264 128/114/262
