# This file uses centimeters as units for non-parametric coordinates.

mtllib plate.mtl
g default
v 1.224616 -0.188155 -1.260810
v 0.014992 -0.188155 -1.761853
v -1.194631 -0.188155 -1.260810
v -1.813039 -0.188155 0.000000
v -1.282012 -0.188155 1.282012
v 0.000000 -0.188155 1.813039
v 1.282012 -0.188155 1.282012
v 1.725658 -0.188155 -0.051186
v 1.814357 0.628157 -1.814357
v 0.000000 0.628157 -2.565888
v -1.814357 0.628157 -1.814357
v -2.565888 0.628157 0.000000
v -1.814357 0.628157 1.814357
v 0.000000 0.628157 2.565888
v 1.814357 0.628157 1.814357
v 2.565888 0.628157 0.000000
v 0.000000 -0.188155 0.000000
v 1.527560 0.141480 -1.527560
v 0.000000 0.141480 -2.160297
v -1.527560 0.141480 -1.527560
v -2.160297 0.141480 0.000000
v -1.527560 0.141480 1.527560
v 0.000000 0.141480 2.160297
v 1.527561 0.141480 1.527561
v 2.160297 0.141480 0.000000
v 1.282012 -0.074973 -1.282012
v 0.000000 -0.074973 -1.813039
v -1.282012 -0.074973 -1.282012
v -1.813039 -0.074973 0.000000
v -1.282012 -0.074973 1.282012
v 0.000000 -0.074973 1.813039
v 1.282012 -0.074973 1.282012
v 1.813039 -0.074973 0.000000
v 1.157678 0.179520 -1.157678
v 0.000000 0.176821 0.000000
v 0.000000 0.179520 -1.637203
v -1.157678 0.179520 -1.157678
v -1.637203 0.179520 0.000000
v -1.157678 0.179520 1.157678
v 0.000000 0.179520 1.637203
v 1.157678 0.179520 1.157678
v 1.637203 0.179520 0.000000
v 1.177712 0.214599 -1.177712
v 0.000000 0.214599 -1.665536
v -1.177712 0.214599 -1.177712
v -1.665536 0.214599 0.000000
v -1.177712 0.214599 1.177712
v 0.000000 0.214599 1.665536
v 1.177712 0.214599 1.177712
v 1.665536 0.214599 0.000000
vt 0.841316 0.024694
vt 0.781223 -0.000000
vt 0.721270 0.025031
vt 0.690759 0.087680
vt 0.717288 0.151221
vt 0.780977 0.177393
vt 0.844518 0.150864
vt 0.866347 0.084647
vt 0.147123 0.000000
vt 0.209471 0.017454
vt 0.272805 0.031675
vt 0.341693 0.041637
vt 0.409911 0.047621
vt 0.478190 0.049519
vt 0.546296 0.047421
vt 0.615147 0.040387
vt 0.679146 0.029475
vt 0.000000 0.436783
vt 0.094035 0.463328
vt 0.189523 0.484120
vt 0.286046 0.498888
vt 0.383233 0.507577
vt 0.480747 0.510177
vt 0.578250 0.506699
vt 0.675358 0.497238
vt 0.771583 0.482191
vt 0.443782 0.584492
vt 0.271719 0.497013
vt 0.087972 0.556750
vt 0.000000 0.729107
vt 0.060551 0.912871
vt 0.232916 1.000000
vt 0.416473 0.940077
vt 0.503711 0.767915
vt 0.780724 0.087427
vt 0.251824 0.748948
vt 0.721146 0.211720
vt 0.082715 0.173996
vt 0.160772 0.197291
vt 0.239657 0.214903
vt 0.319192 0.227096
vt 0.399213 0.234226
vt 0.479548 0.236393
vt 0.560024 0.233574
vt 0.640597 0.225568
vt 0.689308 0.091991
vt 0.127829 0.059974
vt 0.194752 0.079683
vt 0.263947 0.094861
vt 0.334782 0.105038
vt 0.406477 0.111203
vt 0.478450 0.113091
vt 0.550154 0.110499
vt 0.620744 0.103997
vt 0.274208 0.818772
vt 0.218577 0.814209
vt 0.182270 0.771548
vt 0.186641 0.715409
vt 0.229179 0.679008
vt 0.285000 0.683341
vt 0.321380 0.725883
vt 0.316970 0.781738
vt 0.280631 0.834585
vt 0.211201 0.829555
vt 0.165841 0.777040
vt 0.170850 0.708272
vt 0.223034 0.662911
vt 0.292125 0.667703
vt 0.337555 0.719968
vt 0.332728 0.789000
vn 0.276551 -0.691200 -0.667654
vn 0.276551 -0.691200 -0.667654
vn 0.303219 -0.610069 -0.732035
vn 0.303219 -0.610069 -0.732035
vn -0.276551 -0.691200 -0.667654
vn -0.276551 -0.691200 -0.667654
vn -0.303219 -0.610069 -0.732035
vn -0.303219 -0.610069 -0.732035
vn -0.667654 -0.691200 -0.276551
vn -0.667654 -0.691200 -0.276551
vn -0.732035 -0.610069 -0.303219
vn -0.732035 -0.610069 -0.303219
vn -0.667654 -0.691200 0.276551
vn -0.667654 -0.691200 0.276551
vn -0.732035 -0.610069 0.303219
vn -0.732035 -0.610069 0.303219
vn -0.276551 -0.691200 0.667654
vn -0.276551 -0.691200 0.667654
vn -0.303219 -0.610069 0.732035
vn -0.303219 -0.610069 0.732035
vn 0.276551 -0.691200 0.667654
vn 0.276551 -0.691200 0.667654
vn 0.303219 -0.610069 0.732035
vn 0.303219 -0.610069 0.732035
vn 0.667654 -0.691200 0.276551
vn 0.667654 -0.691200 0.276551
vn 0.732035 -0.610069 0.303219
vn 0.732035 -0.610069 0.303219
vn 0.667654 -0.691200 -0.276551
vn 0.667654 -0.691200 -0.276551
vn 0.732035 -0.610069 -0.303219
vn 0.732035 -0.610069 -0.303219
vn 0.000000 -1.000000 0.000000
vn 0.000000 -1.000000 -0.000000
vn 0.000000 -1.000000 -0.000000
vn 0.000000 -1.000000 0.000000
vn 0.000000 -1.000000 0.000000
vn 0.000000 -1.000000 0.000000
vn 0.000000 -1.000000 0.000000
vn 0.000000 -1.000000 -0.000000
vn 0.000000 -1.000000 -0.000000
vn 0.000000 1.000000 0.000000
vn -0.000824 0.999999 0.000824
vn 0.000000 0.999999 0.001649
vn 0.000824 0.999999 0.000824
vn 0.001649 0.999999 0.000000
vn 0.000824 0.999999 -0.000824
vn 0.000000 0.999999 -0.001649
vn -0.000824 0.999999 -0.000824
vn -0.001649 0.999999 0.000000
vn 0.252062 -0.752432 -0.608531
vn 0.252234 -0.752039 -0.608946
vn -0.248760 -0.759899 -0.600560
vn -0.247868 -0.761887 -0.598406
vn -0.608257 -0.750225 -0.259204
vn -0.607781 -0.750692 -0.258967
vn -0.648653 -0.712082 0.268681
vn -0.648653 -0.712082 0.268681
vn -0.268681 -0.712082 0.648653
vn -0.268681 -0.712082 0.648653
vn 0.268681 -0.712082 0.648653
vn 0.268681 -0.712082 0.648653
vn 0.608373 -0.755241 0.243913
vn 0.608852 -0.754805 0.244067
vn 0.591821 -0.767889 -0.245140
vn 0.594272 -0.765668 -0.246156
vn 0.359238 -0.344640 -0.867278
vn 0.359238 -0.344640 -0.867278
vn -0.346536 -0.424259 -0.836611
vn -0.346536 -0.424259 -0.836611
vn -0.848854 -0.363613 -0.383708
vn -0.848854 -0.363613 -0.383708
vn -0.923880 0.000000 0.382683
vn -0.923880 0.000000 0.382683
vn -0.382683 0.000000 0.923880
vn -0.382683 0.000000 0.923880
vn 0.382683 0.000000 0.923880
vn 0.382683 0.000000 0.923880
vn 0.857469 -0.403262 0.319573
vn 0.857469 -0.403262 0.319573
vn 0.812858 -0.475286 -0.336697
vn 0.812858 -0.475286 -0.336697
vn -0.175530 0.888600 0.423767
vn -0.175530 0.888600 0.423767
vn -0.306706 0.598048 0.740453
vn -0.306706 0.598048 0.740453
vn 0.175530 0.888600 0.423767
vn 0.175530 0.888600 0.423767
vn 0.306706 0.598048 0.740453
vn 0.306706 0.598048 0.740453
vn 0.423767 0.888600 0.175530
vn 0.423767 0.888600 0.175530
vn 0.740453 0.598048 0.306706
vn 0.740453 0.598048 0.306706
vn 0.423767 0.888600 -0.175530
vn 0.423767 0.888600 -0.175530
vn 0.740452 0.598048 -0.306706
vn 0.740452 0.598048 -0.306706
vn 0.175530 0.888600 -0.423767
vn 0.175530 0.888600 -0.423767
vn 0.306706 0.598048 -0.740453
vn 0.306706 0.598048 -0.740453
vn -0.175530 0.888600 -0.423767
vn -0.175530 0.888600 -0.423767
vn -0.306706 0.598048 -0.740453
vn -0.306706 0.598048 -0.740453
vn -0.423767 0.888600 -0.175530
vn -0.423767 0.888600 -0.175530
vn -0.740453 0.598048 -0.306706
vn -0.740453 0.598048 -0.306706
vn -0.423767 0.888600 0.175530
vn -0.423767 0.888600 0.175530
vn -0.740452 0.598048 0.306706
vn -0.740452 0.598048 0.306706
vn -0.170366 0.895437 0.411301
vn -0.170366 0.895437 0.411301
vn 0.170366 0.895437 0.411301
vn 0.170366 0.895437 0.411301
vn 0.411301 0.895437 0.170366
vn 0.411301 0.895437 0.170366
vn 0.411301 0.895437 -0.170366
vn 0.411301 0.895437 -0.170366
vn 0.170366 0.895437 -0.411301
vn 0.170366 0.895437 -0.411301
vn -0.170366 0.895437 -0.411301
vn -0.170366 0.895437 -0.411301
vn -0.411301 0.895437 -0.170366
vn -0.411301 0.895437 -0.170366
vn -0.411301 0.895437 0.170366
vn -0.411301 0.895437 0.170366
s 1
g pCylinder1
usemtl aiStandardSurface1SG
f 18/38/1 19/39/2 10/19/3 9/18/4
s 2
f 19/39/5 20/40/6 11/20/7 10/19/8
s 3
f 20/40/9 21/41/10 12/21/11 11/20/12
s 4
f 21/41/13 22/42/14 13/22/15 12/21/16
s 5
f 22/42/17 23/43/18 14/23/19 13/22/20
s 6
f 23/43/21 24/44/22 15/24/23 14/23/24
s 7
f 24/44/25 25/45/26 16/25/27 15/24/28
s 8
f 25/45/29 18/37/30 9/26/31 16/25/32
s 9
f 3/3/33 2/2/34 17/35/35 4/4/36
f 5/5/37 4/4/36 17/35/35 6/6/38
f 7/7/39 6/6/38 17/35/35 8/8/40
f 1/1/41 8/8/40 17/35/35 2/2/34
s 10
f 35/36/42 34/55/43 36/56/44 37/57/45
f 35/36/42 37/57/45 38/58/46 39/59/47
f 35/36/42 39/59/47 40/60/48 41/61/49
f 35/36/42 41/61/49 42/62/50 34/55/43
s 1
f 26/47/51 27/48/52 19/39/2 18/38/1
s 2
f 27/48/53 28/49/54 20/40/6 19/39/5
s 3
f 28/49/55 29/50/56 21/41/10 20/40/9
s 4
f 29/50/57 30/51/58 22/42/14 21/41/13
s 5
f 30/51/59 31/52/60 23/43/18 22/42/17
s 6
f 31/52/61 32/53/62 24/44/22 23/43/21
s 7
f 32/53/63 33/54/64 25/45/26 24/44/25
s 8
f 33/54/65 26/46/66 18/37/30 25/45/29
s 1
f 1/9/67 2/10/68 27/48/52 26/47/51
s 2
f 2/10/69 3/11/70 28/49/54 27/48/53
s 3
f 3/11/71 4/12/72 29/50/56 28/49/55
s 4
f 4/12/73 5/13/74 30/51/58 29/50/57
s 5
f 5/13/75 6/14/76 31/52/60 30/51/59
s 6
f 6/14/77 7/15/78 32/53/62 31/52/61
s 7
f 7/15/79 8/16/80 33/54/64 32/53/63
s 8
f 8/16/81 1/17/82 26/46/66 33/54/65
s 11
f 43/63/83 44/64/84 36/56/85 34/55/86
s 12
f 44/64/87 45/65/88 37/57/89 36/56/90
s 13
f 45/65/91 46/66/92 38/58/93 37/57/94
s 14
f 46/66/95 47/67/96 39/59/97 38/58/98
s 15
f 47/67/99 48/68/100 40/60/101 39/59/102
s 16
f 48/68/103 49/69/104 41/61/105 40/60/106
s 17
f 49/69/107 50/70/108 42/62/109 41/61/110
s 18
f 50/70/111 43/63/112 34/55/113 42/62/114
s 11
f 9/33/115 10/32/116 44/64/84 43/63/83
s 12
f 10/32/117 11/31/118 45/65/88 44/64/87
s 13
f 11/31/119 12/30/120 46/66/92 45/65/91
s 14
f 12/30/121 13/29/122 47/67/96 46/66/95
s 15
f 13/29/123 14/28/124 48/68/100 47/67/99
s 16
f 14/28/125 15/27/126 49/69/104 48/68/103
s 17
f 15/27/127 16/34/128 50/70/108 49/69/107
s 18
f 16/34/129 9/33/130 43/63/112 50/70/111
