# This file uses centimeters as units for non-parametric coordinates.

mtllib colaCan.mtl
g default
v 0.659154 -0.859600 -0.707107
v -0.001249 -0.859600 -1.000000
v -0.661652 -0.859600 -0.707107
v -0.959464 -0.859600 -0.000000
v -0.661652 -0.859600 0.707107
v -0.001249 -0.859600 1.000000
v 0.659153 -0.859600 0.707107
v 0.873259 -0.859600 -0.000000
v 0.546750 1.470895 -0.546750
v 0.000000 1.470895 -0.773221
v -0.546750 1.470895 -0.546750
v -0.791774 1.470895 0.000000
v -0.546750 1.470895 0.546750
v 0.000000 1.470895 0.773221
v 0.546750 1.470895 0.546750
v 0.705569 1.470895 0.000000
v 0.000000 1.421358 0.000000
v 0.659154 -0.947663 -0.707107
v -0.001249 -0.947663 -1.000000
v -0.661652 -0.947663 -0.707107
v -0.959464 -0.947663 -0.000000
v -0.661652 -0.947663 0.707107
v -0.001249 -0.947663 1.000000
v 0.659153 -0.947663 0.707107
v 0.873259 -0.947663 -0.000000
v 0.570373 -1.115649 -0.612047
v -0.001249 -1.115649 -0.865565
v -0.001249 -1.115649 0.000000
v -0.572871 -1.115649 -0.612047
v -0.833909 -1.115649 0.000000
v -0.572871 -1.115649 0.612047
v -0.001249 -1.115649 0.865565
v 0.570373 -1.115649 0.612047
v 0.747704 -1.115649 0.000000
v 0.596398 -0.999802 -0.639913
v 0.784510 -0.999802 0.000000
v 0.596398 -0.999802 0.639914
v -0.001249 -0.999802 0.904974
v -0.598897 -0.999802 0.639913
v -0.870715 -0.999802 0.000000
v -0.598897 -0.999802 -0.639913
v -0.001249 -0.999802 -0.904974
v 0.580225 -1.071793 -0.622596
v -0.001249 -1.071793 -0.880484
v -0.582723 -1.071793 -0.622596
v -0.847843 -1.071793 0.000000
v -0.582723 -1.071793 0.622597
v -0.001249 -1.071793 0.880484
v 0.580225 -1.071793 0.622597
v 0.761637 -1.071793 0.000000
v 0.529568 1.215919 -0.529568
v 0.681271 1.215919 0.000000
v 0.529568 1.215919 0.529568
v 0.000000 1.215919 0.748923
v -0.529568 1.215919 0.529568
v -0.767476 1.215919 0.000000
v -0.529568 1.215919 -0.529568
v 0.000000 1.215919 -0.748922
v 0.635320 0.129508 -0.681588
v -0.001249 0.129508 -0.963911
v -0.637819 0.129508 -0.681588
v -0.925759 0.129508 -0.000000
v -0.637819 0.129508 0.681588
v -0.001249 0.129508 0.963911
v 0.635320 0.129508 0.681588
v 0.839553 0.129508 -0.000000
v 0.662003 0.979182 -0.662003
v 0.868561 0.979182 0.000000
v 0.662003 0.979182 0.662003
v 0.000000 0.979182 0.936213
v -0.662003 0.979182 0.662003
v -0.954767 0.979182 0.000000
v -0.662003 0.979182 -0.662003
v 0.000000 0.979182 -0.936213
v 0.659154 -0.513511 -0.707107
v -0.001249 -0.513511 -1.000000
v -0.661652 -0.513511 -0.707107
v -0.959464 -0.513511 -0.000000
v -0.661652 -0.513511 0.707107
v -0.001249 -0.513511 1.000000
v 0.659154 -0.513511 0.707107
v 0.873259 -0.513511 -0.000000
v 0.594951 -0.996962 -0.638364
v 0.782463 -0.996962 0.000000
v 0.594951 -0.996962 0.638364
v -0.001249 -0.996962 0.902783
v -0.597450 -0.996962 0.638364
v -0.868668 -0.996962 0.000000
v -0.597450 -0.996962 -0.638364
v -0.001249 -0.996962 -0.902783
v 0.513529 1.344434 -0.513529
v 0.658589 1.344434 0.000000
v 0.513529 1.344434 0.513529
v 0.000000 1.344434 0.726240
v -0.513529 1.344434 0.513529
v -0.744794 1.344434 0.000000
v -0.513529 1.344434 -0.513529
v 0.000000 1.344434 -0.726240
v 0.524963 1.273149 -0.524963
v 0.000000 1.273149 -0.742410
v -0.524963 1.273149 -0.524963
v -0.760964 1.273149 0.000000
v -0.524963 1.273149 0.524963
v 0.000000 1.273149 0.742410
v 0.524963 1.273149 0.524963
v 0.674759 1.273149 0.000000
v 0.521073 1.361901 -0.521073
v 0.000000 1.361901 -0.736908
v -0.521073 1.361901 -0.521073
v -0.755462 1.361901 0.000000
v -0.521073 1.361901 0.521073
v 0.000000 1.361901 0.736908
v 0.521073 1.361901 0.521073
v 0.669257 1.361901 0.000000
vt 0.009100 0.223030
vt 0.144049 0.223030
vt 0.144049 0.391077
vt 0.009100 0.391077
vt 0.009100 0.095336
vt 0.144049 0.095336
vt 0.279079 0.223030
vt 0.279079 0.391077
vt 0.144049 0.448608
vt 0.009100 0.448608
vt 0.009100 0.009324
vt 0.144049 0.009324
vt 0.279079 0.095336
vt 0.279079 0.448608
vt 0.144049 0.459745
vt 0.009100 0.459745
vt 0.279079 0.009324
vt 0.279079 0.459745
vt 0.144049 0.473761
vt 0.009100 0.473761
vt 0.279079 0.473761
vt 0.144049 0.477649
vt 0.009100 0.477649
vt 0.279079 0.477649
vt 0.144049 0.499900
vt 0.009100 0.499900
vt 0.279079 0.499900
vt 0.281951 0.224353
vt 0.409167 0.224353
vt 0.409167 0.391625
vt 0.281951 0.391625
vt 0.281951 0.097424
vt 0.409167 0.097424
vt 0.536462 0.224353
vt 0.536462 0.391625
vt 0.409167 0.448843
vt 0.281951 0.448843
vt 0.281951 0.011883
vt 0.409167 0.011883
vt 0.536462 0.097424
vt 0.536462 0.448843
vt 0.409167 0.460154
vt 0.281951 0.460154
vt 0.536462 0.011883
vt 0.536462 0.460154
vt 0.409167 0.474458
vt 0.281951 0.474458
vt 0.536462 0.474458
vt 0.409167 0.478406
vt 0.281951 0.478406
vt 0.536462 0.478406
vt 0.409167 0.500827
vt 0.281951 0.500827
vt 0.536462 0.500827
vt 0.888271 0.272913
vt 0.888271 0.420722
vt 0.871306 0.420722
vt 0.871306 0.272913
vt 0.888271 0.568532
vt 0.871306 0.568532
vt 0.832479 0.283090
vt 0.832479 0.425418
vt 0.815514 0.425418
vt 0.815514 0.283090
vt 0.832479 0.567746
vt 0.815514 0.567746
vt 0.838895 0.145720
vt 0.838895 0.279987
vt 0.824752 0.279987
vt 0.824752 0.145720
vt 0.839545 0.145720
vt 0.839545 0.279987
vt 0.816136 0.279987
vt 0.816136 0.145720
vt 0.838895 0.012426
vt 0.824752 0.012426
vt 0.869791 0.145720
vt 0.869791 0.279987
vt 0.839545 0.012426
vt 0.816136 0.012426
vt 0.869791 0.012426
vt 0.894509 0.141327
vt 0.894509 0.272913
vt 0.880090 0.272913
vt 0.880090 0.141327
vt 0.895174 0.141327
vt 0.895174 0.272913
vt 0.871306 0.272913
vt 0.871306 0.141327
vt 0.894509 0.009324
vt 0.880090 0.009324
vt 0.925965 0.141327
vt 0.925965 0.272913
vt 0.895174 0.009324
vt 0.871306 0.009324
vt 0.925965 0.009324
vt 0.591706 0.700182
vt 0.712981 0.700182
vt 0.591706 0.835878
vt 0.462744 0.700182
vt 0.712981 0.835878
vt 0.712981 0.971575
vt 0.462744 0.835878
vt 0.462744 0.971575
vt 0.591706 0.971575
vt 0.865008 0.832065
vt 0.978995 0.952179
vt 0.865020 0.952179
vt 0.743210 0.952179
vt 0.978995 0.711950
vt 0.978995 0.832063
vt 0.743210 0.832067
vt 0.743210 0.711950
vt 0.865016 0.711950
vt 0.267842 0.777332
vt 0.138720 0.777332
vt 0.138720 0.609174
vt 0.267842 0.609174
vt 0.267842 0.904575
vt 0.138720 0.904575
vt 0.009100 0.777332
vt 0.009100 0.609174
vt 0.138720 0.552225
vt 0.267842 0.552225
vt 0.267842 0.990676
vt 0.138720 0.990676
vt 0.009100 0.904575
vt 0.009100 0.552225
vt 0.138720 0.540857
vt 0.267842 0.540857
vt 0.009100 0.990676
vt 0.009100 0.540857
vt 0.267842 0.526469
vt 0.138720 0.526469
vt 0.009100 0.526469
vt 0.138720 0.522508
vt 0.267842 0.522508
vt 0.009100 0.522508
vt 0.138720 0.499900
vt 0.267842 0.499900
vt 0.009100 0.499900
vt 0.544973 0.224371
vt 0.666812 0.224371
vt 0.666812 0.383321
vt 0.544973 0.383321
vt 0.544973 0.104090
vt 0.666812 0.104090
vt 0.789391 0.224371
vt 0.789391 0.383321
vt 0.666812 0.437207
vt 0.544973 0.437207
vt 0.544973 0.022879
vt 0.666812 0.022879
vt 0.789391 0.104090
vt 0.789391 0.437207
vt 0.666812 0.447977
vt 0.544973 0.447977
vt 0.789391 0.022879
vt 0.789391 0.447977
vt 0.666812 0.461621
vt 0.544973 0.461621
vt 0.789391 0.461621
vt 0.666812 0.465362
vt 0.544973 0.465362
vt 0.789391 0.465362
vt 0.666812 0.486613
vt 0.544973 0.486613
vt 0.789391 0.486613
vt 0.925465 0.272913
vt 0.925465 0.412087
vt 0.908500 0.412087
vt 0.908500 0.272913
vt 0.925465 0.551262
vt 0.908500 0.551262
vt 0.889903 0.551263
vt 0.889903 0.412088
vt 0.906868 0.412088
vt 0.906868 0.551263
vt 0.889903 0.272913
vt 0.906868 0.272913
vt 0.959014 0.393947
vt 0.959014 0.273835
vt 0.972683 0.273834
vt 0.972683 0.393947
vt 0.958385 0.393947
vt 0.958385 0.273834
vt 0.981009 0.273835
vt 0.981009 0.393947
vt 0.959014 0.514425
vt 0.972683 0.514425
vt 0.928827 0.393947
vt 0.928827 0.273835
vt 0.958385 0.514425
vt 0.981009 0.514425
vt 0.928827 0.514425
vt 0.951052 0.137765
vt 0.951052 0.251110
vt 0.938154 0.251110
vt 0.938154 0.137765
vt 0.951646 0.137765
vt 0.951646 0.251110
vt 0.930297 0.251110
vt 0.930297 0.137765
vt 0.951052 0.024075
vt 0.938154 0.024075
vt 0.979539 0.137765
vt 0.979539 0.251110
vt 0.951646 0.024075
vt 0.930297 0.024075
vt 0.979539 0.024075
vn 0.000000 -1.000000 0.000000
vn 0.000000 -1.000000 0.000000
vn 0.000000 -1.000000 0.000000
vn 0.000000 -1.000000 0.000000
vn 0.000000 -1.000000 0.000000
vn 0.000000 -1.000000 0.000000
vn 0.000000 -1.000000 0.000000
vn 0.000000 -1.000000 0.000000
vn 0.000000 -1.000000 0.000000
vn -0.000000 1.000000 -0.000000
vn -0.031757 0.998882 0.035016
vn 0.000000 0.997954 0.063935
vn 0.031995 0.999000 0.031239
vn 0.062443 0.998049 0.000000
vn 0.031995 0.999000 -0.031239
vn 0.000000 0.997954 -0.063935
vn -0.031757 0.998882 -0.035016
vn -0.070036 0.997544 0.000000
vn 0.398644 0.032889 -0.916516
vn 0.398743 0.033176 -0.916463
vn 0.387923 0.142927 -0.910543
vn 0.387677 0.146277 -0.910115
vn -0.398729 0.033813 -0.916445
vn -0.398640 0.033563 -0.916493
vn -0.387637 0.147015 -0.910013
vn -0.387858 0.144024 -0.910397
vn -0.919452 0.008480 -0.393111
vn -0.919430 0.007934 -0.393173
vn -0.911980 0.106261 -0.396234
vn -0.912071 0.105374 -0.396260
vn -0.919430 0.007934 0.393173
vn -0.919452 0.008480 0.393111
vn -0.912071 0.105374 0.396260
vn -0.911980 0.106261 0.396234
vn -0.398640 0.033563 0.916493
vn -0.398729 0.033813 0.916445
vn -0.387858 0.144024 0.910397
vn -0.387637 0.147015 0.910013
vn 0.398742 0.033176 0.916463
vn 0.398644 0.032889 0.916516
vn 0.387677 0.146277 0.910115
vn 0.387923 0.142927 0.910543
vn 0.956820 0.006300 0.290612
vn 0.956814 0.005659 0.290646
vn 0.951047 0.107067 0.289906
vn 0.952123 0.095825 0.290308
vn 0.956814 0.005659 -0.290647
vn 0.956820 0.006300 -0.290612
vn 0.952123 0.095825 -0.290308
vn 0.951047 0.107067 -0.289906
vn 0.138690 -0.939668 -0.312712
vn 0.123419 -0.952538 -0.278280
vn 0.405423 0.000000 -0.914129
vn 0.405423 0.000000 -0.914129
vn -0.123419 -0.952538 -0.278279
vn -0.138690 -0.939669 -0.312711
vn -0.405423 0.000000 -0.914129
vn -0.405423 0.000000 -0.914129
vn -0.295130 -0.947009 -0.126778
vn -0.307809 -0.942233 -0.132105
vn -0.921597 0.000000 -0.388149
vn -0.921597 0.000000 -0.388149
vn -0.307809 -0.942233 0.132105
vn -0.295130 -0.947009 0.126778
vn -0.921597 -0.000000 0.388149
vn -0.921597 -0.000000 0.388149
vn -0.138689 -0.939669 0.312711
vn -0.123419 -0.952538 0.278279
vn -0.405423 0.000000 0.914129
vn -0.405423 0.000000 0.914129
vn 0.123419 -0.952538 0.278279
vn 0.138690 -0.939668 0.312712
vn 0.405423 -0.000000 0.914129
vn 0.405423 -0.000000 0.914129
vn 0.263833 -0.961770 0.073421
vn 0.361777 -0.926523 0.103314
vn 0.957088 -0.000000 0.289797
vn 0.957088 -0.000000 0.289797
vn 0.361776 -0.926523 -0.103314
vn 0.263833 -0.961770 -0.073421
vn 0.957088 0.000000 -0.289797
vn 0.957088 0.000000 -0.289797
vn 0.390905 -0.265206 -0.881396
vn 0.390975 -0.264583 -0.881552
vn 0.387136 -0.296941 -0.872898
vn 0.387137 -0.296941 -0.872898
vn -0.390974 -0.264583 -0.881552
vn -0.390905 -0.265206 -0.881396
vn -0.387136 -0.296941 -0.872898
vn -0.387136 -0.296941 -0.872898
vn -0.890157 -0.253594 -0.378563
vn -0.890121 -0.253746 -0.378548
vn -0.882147 -0.284376 -0.375429
vn -0.882146 -0.284376 -0.375430
vn -0.890121 -0.253746 0.378548
vn -0.890157 -0.253594 0.378563
vn -0.882147 -0.284376 0.375430
vn -0.882147 -0.284376 0.375429
vn -0.390905 -0.265206 0.881396
vn -0.390975 -0.264583 0.881552
vn -0.387136 -0.296941 0.872898
vn -0.387136 -0.296941 0.872898
vn 0.390974 -0.264583 0.881552
vn 0.390905 -0.265206 0.881396
vn 0.387136 -0.296941 0.872898
vn 0.387136 -0.296941 0.872898
vn 0.929059 -0.250767 0.271965
vn 0.928639 -0.252451 0.271840
vn 0.920933 -0.282083 0.268908
vn 0.920945 -0.282082 0.268869
vn 0.928639 -0.252451 -0.271840
vn 0.929059 -0.250767 -0.271965
vn 0.920945 -0.282081 -0.268869
vn 0.920933 -0.282083 -0.268908
vn 0.826263 -0.506456 -0.246561
vn 0.826227 -0.506518 -0.246551
vn 0.826228 -0.506518 0.246551
vn 0.826263 -0.506455 0.246562
vn 0.344453 -0.527404 0.776658
vn 0.344458 -0.527383 0.776670
vn -0.344458 -0.527383 0.776669
vn -0.344453 -0.527405 0.776657
vn -0.792522 -0.509457 0.335205
vn -0.792520 -0.509461 0.335204
vn -0.792520 -0.509461 -0.335204
vn -0.792522 -0.509457 -0.335205
vn -0.344453 -0.527404 -0.776657
vn -0.344458 -0.527383 -0.776670
vn 0.344458 -0.527383 -0.776670
vn 0.344453 -0.527404 -0.776658
vn 0.387136 -0.296940 -0.872899
vn 0.387136 -0.296940 -0.872899
vn -0.387136 -0.296940 -0.872899
vn -0.387136 -0.296940 -0.872899
vn -0.881964 -0.284378 -0.375858
vn -0.881964 -0.284378 -0.375858
vn -0.881964 -0.284377 0.375858
vn -0.881964 -0.284377 0.375858
vn -0.387136 -0.296940 0.872899
vn -0.387136 -0.296940 0.872899
vn 0.387136 -0.296941 0.872898
vn 0.387136 -0.296941 0.872898
vn 0.921300 -0.282039 0.267697
vn 0.921299 -0.282039 0.267697
vn 0.921299 -0.282039 -0.267697
vn 0.921299 -0.282039 -0.267697
vn 0.405237 0.030247 -0.913711
vn 0.405238 0.030207 -0.913712
vn -0.405238 0.030207 -0.913712
vn -0.405237 0.030247 -0.913711
vn -0.921091 0.028820 -0.388279
vn -0.921091 0.028834 -0.388278
vn -0.921091 0.028834 0.388278
vn -0.921091 0.028820 0.388279
vn -0.405237 0.030247 0.913711
vn -0.405238 0.030207 0.913712
vn 0.405238 0.030207 0.913712
vn 0.405237 0.030247 0.913711
vn 0.956939 0.028555 0.288882
vn 0.956937 0.028646 0.288879
vn 0.956937 0.028646 -0.288879
vn 0.956939 0.028555 -0.288882
vn 0.808639 0.536511 -0.241369
vn 0.811316 0.532154 -0.242029
vn 0.811316 0.532154 0.242029
vn 0.808639 0.536511 0.241369
vn 0.323021 0.536193 0.779842
vn 0.323021 0.536193 0.779842
vn -0.323021 0.536193 0.779842
vn -0.323021 0.536193 0.779842
vn -0.771357 0.535411 0.344010
vn -0.770702 0.536548 0.343708
vn -0.770702 0.536548 -0.343708
vn -0.771357 0.535411 -0.344010
vn -0.323021 0.536193 -0.779842
vn -0.323021 0.536193 -0.779842
vn 0.323021 0.536193 -0.779842
vn 0.323021 0.536193 -0.779842
vn 0.382219 0.049236 -0.922759
vn 0.377846 0.158491 -0.912202
vn 0.377846 0.158491 -0.912202
vn 0.382219 0.049236 -0.922759
vn 0.949659 0.158037 -0.270505
vn 0.949830 0.156882 -0.270575
vn 0.960952 0.046737 -0.272740
vn 0.960737 0.051266 -0.272682
vn 0.949830 0.156882 0.270575
vn 0.949659 0.158038 0.270505
vn 0.960737 0.051266 0.272682
vn 0.960952 0.046737 0.272740
vn 0.377847 0.158491 0.912202
vn 0.377846 0.158491 0.912202
vn 0.382219 0.049237 0.922759
vn 0.382219 0.049237 0.922759
vn -0.377846 0.158491 0.912202
vn -0.377847 0.158491 0.912202
vn -0.382219 0.049237 0.922759
vn -0.382219 0.049237 0.922759
vn -0.900531 0.158276 0.404959
vn -0.900487 0.158578 0.404940
vn -0.910799 0.049805 0.409835
vn -0.910852 0.048622 0.409859
vn -0.900487 0.158579 -0.404941
vn -0.900531 0.158276 -0.404959
vn -0.910852 0.048622 -0.409859
vn -0.910799 0.049805 -0.409835
vn -0.377846 0.158491 -0.912202
vn -0.377846 0.158491 -0.912202
vn -0.382219 0.049236 -0.922759
vn -0.382219 0.049236 -0.922759
vn 0.365750 -0.294183 -0.882997
vn 0.365750 -0.294183 -0.882997
vn 0.362706 -0.318879 -0.875649
vn 0.362706 -0.318879 -0.875649
vn -0.365750 -0.294183 -0.882997
vn -0.365750 -0.294183 -0.882997
vn -0.362706 -0.318879 -0.875649
vn -0.362706 -0.318879 -0.875649
vn -0.871938 -0.294068 -0.391469
vn -0.871938 -0.294068 -0.391469
vn -0.864537 -0.319113 -0.388256
vn -0.864751 -0.318420 -0.388348
vn -0.871938 -0.294067 0.391469
vn -0.871938 -0.294067 0.391469
vn -0.864751 -0.318420 0.388349
vn -0.864537 -0.319112 0.388256
vn -0.365750 -0.294183 0.882997
vn -0.365750 -0.294183 0.882997
vn -0.362706 -0.318879 0.875649
vn -0.362706 -0.318879 0.875649
vn 0.365750 -0.294183 0.882997
vn 0.365750 -0.294183 0.882997
vn 0.362706 -0.318879 0.875649
vn 0.362706 -0.318879 0.875649
vn 0.919044 -0.292474 0.264229
vn 0.919044 -0.292474 0.264229
vn 0.912013 -0.315731 0.261815
vn 0.911174 -0.318379 0.261529
vn 0.919044 -0.292474 -0.264229
vn 0.919044 -0.292474 -0.264229
vn 0.911174 -0.318379 -0.261529
vn 0.912013 -0.315731 -0.261815
s 1
g pCylinder1
usemtl lambert3SG
f 27/97/1 26/98/2 28/99/3 29/100/4
f 30/103/5 29/100/4 28/99/3 31/104/6
f 32/105/7 31/104/6 28/99/3 33/102/8
f 34/101/9 33/102/8 28/99/3 26/98/2
s 2
f 17/106/10 9/107/11 10/108/12 11/109/13
f 17/106/10 11/109/13 12/112/14 13/113/15
f 17/106/10 13/113/15 14/114/16 15/110/17
f 17/106/10 15/110/17 16/111/18 9/107/11
s 3
f 59/115/19 60/116/20 74/117/21 67/118/22
s 4
f 60/116/23 61/121/24 73/122/25 74/117/26
s 5
f 61/1/27 62/2/28 72/3/29 73/4/30
s 6
f 62/2/31 63/7/32 71/8/33 72/3/34
s 7
f 63/142/35 64/143/36 70/144/37 71/145/38
s 8
f 64/143/39 65/148/40 69/149/41 70/144/42
s 9
f 65/28/43 66/29/44 68/30/45 69/31/46
s 10
f 66/29/47 59/34/48 67/35/49 68/30/50
s 3
f 1/169/51 2/170/52 19/171/53 18/172/54
s 4
f 2/170/55 3/173/56 20/174/57 19/171/58
s 5
f 3/55/59 4/56/60 21/57/61 20/58/62
s 6
f 4/56/63 5/59/64 22/60/65 21/57/66
s 7
f 5/175/67 6/176/68 23/177/69 22/178/70
s 8
f 6/176/71 7/179/72 24/180/73 23/177/74
s 9
f 7/61/75 8/62/76 25/63/77 24/64/78
s 10
f 8/62/79 1/65/80 18/66/81 25/63/82
s 3
f 42/181/83 35/182/84 43/183/85 44/184/86
s 4
f 41/189/87 42/181/88 44/184/89 45/190/90
s 5
f 40/67/91 41/68/92 45/69/93 46/70/94
s 6
f 39/75/95 40/67/96 46/70/97 47/76/98
s 7
f 38/196/99 39/197/100 47/198/101 48/199/102
s 8
f 37/204/103 38/196/104 48/199/105 49/205/106
s 9
f 36/82/107 37/83/108 49/84/109 50/85/110
s 10
f 35/90/111 36/82/112 50/85/113 43/91/114
f 83/94/115 84/86/116 36/82/112 35/90/111
s 9
f 84/86/117 85/87/118 37/83/108 36/82/107
s 8
f 85/208/119 86/200/120 38/196/104 37/204/103
s 7
f 86/200/121 87/201/122 39/197/100 38/196/99
s 6
f 87/79/123 88/71/124 40/67/96 39/75/95
s 5
f 88/71/125 89/72/126 41/68/92 40/67/91
s 4
f 89/193/127 90/185/128 42/181/88 41/189/87
s 3
f 90/185/129 83/186/130 35/182/84 42/181/83
f 44/184/86 43/183/85 26/187/131 27/188/132
s 4
f 45/190/90 44/184/89 27/188/133 29/194/134
s 5
f 46/70/94 45/69/93 29/73/135 30/74/136
s 6
f 47/76/98 46/70/97 30/74/137 31/80/138
s 7
f 48/199/102 47/198/101 31/202/139 32/203/140
s 8
f 49/205/106 48/199/105 32/203/141 33/209/142
s 9
f 50/85/110 49/84/109 33/88/143 34/89/144
s 10
f 43/91/114 50/85/113 34/89/145 26/95/146
s 3
f 75/119/147 76/120/148 60/116/20 59/115/19
s 4
f 76/120/149 77/127/150 61/121/24 60/116/23
s 5
f 77/5/151 78/6/152 62/2/28 61/1/27
s 6
f 78/6/153 79/13/154 63/7/32 62/2/31
s 7
f 79/146/155 80/147/156 64/143/36 63/142/35
s 8
f 80/147/157 81/154/158 65/148/40 64/143/39
s 9
f 81/32/159 82/33/160 66/29/44 65/28/43
s 10
f 82/33/161 75/40/162 59/34/48 66/29/47
f 68/30/50 67/35/49 51/41/163 52/36/164
s 9
f 69/31/46 68/30/45 52/36/165 53/37/166
s 8
f 70/144/42 69/149/41 53/155/167 54/150/168
s 7
f 71/145/38 70/144/37 54/150/169 55/151/170
s 6
f 72/3/34 71/8/33 55/14/171 56/9/172
s 5
f 73/4/30 72/3/29 56/9/173 57/10/174
s 4
f 74/117/26 73/122/25 57/128/175 58/123/176
s 3
f 67/118/22 74/117/21 58/123/177 51/124/178
f 18/125/54 19/126/53 76/120/148 75/119/147
s 4
f 19/126/58 20/131/57 77/127/150 76/120/149
s 5
f 20/11/62 21/12/61 78/6/152 77/5/151
s 6
f 21/12/66 22/17/65 79/13/154 78/6/153
s 7
f 22/152/70 23/153/69 80/147/156 79/146/155
s 8
f 23/153/74 24/158/73 81/154/158 80/147/157
s 9
f 24/38/78 25/39/77 82/33/160 81/32/159
s 10
f 25/39/82 18/44/81 75/40/162 82/33/161
f 1/96/80 8/92/79 84/86/116 83/94/115
s 9
f 8/92/76 7/93/75 85/87/118 84/86/117
s 8
f 7/210/72 6/206/71 86/200/120 85/208/119
s 7
f 6/206/68 5/207/67 87/201/122 86/200/121
s 6
f 5/81/64 4/77/63 88/71/124 87/79/123
s 5
f 4/77/60 3/78/59 89/72/126 88/71/125
s 4
f 3/195/56 2/191/55 90/185/128 89/193/127
s 3
f 2/191/52 1/192/51 83/186/130 90/185/129
f 91/133/179 99/130/180 100/129/181 98/134/182
s 10
f 106/42/183 99/45/184 91/48/185 92/46/186
s 9
f 105/43/187 106/42/188 92/46/189 93/47/190
s 8
f 104/156/191 105/159/192 93/162/193 94/160/194
s 7
f 103/157/195 104/156/196 94/160/197 95/161/198
s 6
f 102/15/199 103/18/200 95/21/201 96/19/202
s 5
f 101/16/203 102/15/204 96/19/205 97/20/206
s 4
f 100/129/207 101/132/208 97/135/209 98/134/210
s 3
f 10/139/211 9/140/212 107/137/213 108/136/214
s 4
f 11/141/215 10/139/216 108/136/217 109/138/218
s 5
f 12/25/219 11/26/220 109/23/221 110/22/222
s 6
f 13/27/223 12/25/224 110/22/225 111/24/226
s 7
f 14/166/227 13/167/228 111/164/229 112/163/230
s 8
f 15/168/231 14/166/232 112/163/233 113/165/234
s 9
f 16/52/235 15/53/236 113/50/237 114/49/238
s 10
f 9/54/239 16/52/240 114/49/241 107/51/242
s 3
f 100/129/181 99/130/180 51/124/178 58/123/177
s 4
f 57/128/175 101/132/208 100/129/207 58/123/176
s 5
f 56/9/173 102/15/204 101/16/203 57/10/174
s 6
f 55/14/171 103/18/200 102/15/199 56/9/172
s 7
f 54/150/169 104/156/196 103/157/195 55/151/170
s 8
f 53/155/167 105/159/192 104/156/191 54/150/168
s 9
f 52/36/165 106/42/188 105/43/187 53/37/166
s 10
f 51/41/163 99/45/184 106/42/183 52/36/164
s 3
f 108/136/214 107/137/213 91/133/179 98/134/182
s 4
f 109/138/218 108/136/217 98/134/210 97/135/209
s 5
f 110/22/222 109/23/221 97/20/206 96/19/205
s 6
f 111/24/226 110/22/225 96/19/202 95/21/201
s 7
f 112/163/230 111/164/229 95/161/198 94/160/197
s 8
f 113/165/234 112/163/233 94/160/194 93/162/193
s 9
f 114/49/238 113/50/237 93/47/190 92/46/189
s 10
f 107/51/242 114/49/241 92/46/186 91/48/185
