# This file uses centimeters as units for non-parametric coordinates.

mtllib pizzabox.mtl
g default
v 4.193739 -0.024055 3.507864
v 0.815682 6.124862 3.507864
v 4.193739 -0.024055 -3.507864
v 0.815682 6.124862 -3.507864
v 0.815682 6.124862 -3.327430
v 4.193739 -0.024055 -3.327430
v 0.815682 6.124862 3.271568
v 4.193739 -0.024055 3.271568
v 4.116167 -0.064909 3.507864
v 0.741755 6.084248 3.507864
v 0.741755 6.084248 3.271569
v 0.741755 6.084248 -3.327429
v 0.741755 6.084248 -3.507864
v 4.116167 -0.064909 -3.507864
v 4.116167 -0.064909 -3.327429
v 4.116167 -0.064909 3.271569
v 4.072208 0.015198 3.507864
v 4.149731 0.056049 3.507864
v 4.149733 0.056047 3.271568
v 4.149733 0.056047 -3.327430
v 4.149731 0.056049 -3.507864
v 4.072209 0.015196 -3.507864
v 0.814494 5.951697 -3.507864
v 0.888498 5.992319 -3.507864
v 0.888500 5.992316 -3.327429
v 0.888500 5.992316 3.271568
v 0.888498 5.992319 3.507864
v 0.814492 5.951700 3.507864
vt 0.315058 0.686159
vt 0.945886 0.598063
vt 0.322337 0.972291
vt 0.314715 0.972281
vt 0.036291 0.685824
vt 0.035947 0.971947
vt 0.026309 0.685812
vt 0.659972 0.901719
vt 0.947295 0.896573
vt 0.660353 0.898167
vt 0.652502 0.899540
vt 0.650020 0.888749
vt 0.653582 0.888464
vt 0.654670 0.897574
vt 0.654626 0.607742
vt 0.651074 0.607439
vt 0.655730 0.600986
vt 0.322329 0.978679
vt 0.945252 0.601719
vt 0.661284 0.600145
vt 0.950569 0.600047
vt 0.315063 0.682298
vt 0.949494 0.608896
vt 0.948466 0.602057
vt 0.951542 0.886579
vt 0.036295 0.681963
vt 0.950457 0.896055
vt 0.953038 0.897948
vt 0.025965 0.971935
vt 0.025957 0.978323
vt 0.661018 0.596585
vt 0.653390 0.598609
vt 0.322680 0.686168
vt 0.947950 0.900237
vt 0.955247 0.886725
vt 0.026313 0.681951
vt 0.035940 0.978335
vt 0.953179 0.608454
vt 0.314707 0.978670
vt 0.322685 0.682307
vn 0.876447 0.481498 -0.000000
vn 0.876447 0.481498 -0.000001
vn 0.876447 0.481497 -0.000001
vn 0.876447 0.481498 -0.000000
vn 0.876447 0.481498 0.000000
vn 0.876447 0.481498 0.000000
vn 0.876447 0.481498 0.000001
vn 0.876447 0.481498 0.000001
vn 0.000000 0.000001 1.000000
vn 0.000000 0.000001 1.000000
vn 0.000000 0.000001 1.000000
vn 0.000000 0.000001 1.000000
vn -0.481501 0.876445 0.000000
vn -0.481501 0.876446 0.000000
vn -0.481501 0.876446 0.000000
vn -0.481501 0.876445 0.000000
vn -0.481501 0.876446 0.000000
vn -0.481501 0.876446 0.000000
vn -0.481501 0.876446 0.000000
vn -0.481501 0.876446 0.000000
vn 0.000000 -0.000001 -1.000000
vn 0.000000 -0.000001 -1.000000
vn 0.000000 -0.000001 -1.000000
vn 0.000000 -0.000001 -1.000000
vn 0.465990 -0.884790 -0.000000
vn 0.465991 -0.884790 -0.000000
vn 0.465991 -0.884790 -0.000000
vn 0.465990 -0.884790 -0.000000
vn 0.465991 -0.884790 0.000000
vn 0.465991 -0.884790 0.000000
vn 0.465992 -0.884789 0.000000
vn 0.465992 -0.884789 0.000000
vn 0.000000 0.000001 1.000000
vn 0.000000 0.000001 1.000000
vn 0.876449 0.481496 0.000000
vn 0.876447 0.481499 0.000001
vn 0.876448 0.481496 -0.000000
vn 0.876447 0.481499 -0.000001
vn 0.000000 0.000000 -1.000000
vn 0.000000 0.000000 -1.000000
vn 0.000002 -0.000001 -1.000000
vn 0.000002 -0.000001 -1.000000
vn 0.876448 0.481496 -0.000001
vn 0.876448 0.481496 -0.000000
vn 0.876448 0.481496 0.000000
vn 0.876448 0.481497 0.000001
vn 0.000005 0.000001 1.000000
vn 0.000005 0.000001 1.000000
vn -0.876674 -0.481084 0.000000
vn -0.876674 -0.481084 0.000000
vn -0.876674 -0.481084 0.000000
vn -0.876674 -0.481084 0.000000
vn -0.876674 -0.481084 0.000000
vn -0.876675 -0.481084 0.000000
vn -0.876674 -0.481084 0.000000
vn -0.876674 -0.481084 0.000000
vn -0.876674 -0.481084 0.000000
vn -0.876674 -0.481084 0.000000
vn -0.876674 -0.481084 0.000000
vn -0.876674 -0.481084 0.000000
s 1
g polySurface2 pizzaBox
usemtl aiStandardSurface1SG
f 20/1/1 21/33/2 24/3/3 25/4/4
f 19/5/5 20/1/1 25/4/4 26/6/6
f 18/7/7 19/5/5 26/6/6 27/29/8
s 2
f 17/9/9 18/34/10 27/8/11 28/10/12
s 3
f 2/11/13 7/12/14 11/13/15 10/14/16
f 12/15/17 11/13/15 7/12/14 5/16/18
f 13/17/19 12/15/17 5/16/18 4/32/20
s 4
f 21/2/21 22/19/22 23/20/23 24/31/24
s 5
f 3/21/25 6/38/26 15/23/27 14/24/28
f 16/25/29 15/23/27 6/38/26 8/35/30
f 9/27/31 16/25/29 8/35/30 1/28/32
s 2
f 1/28/33 18/34/10 17/9/9 9/27/34
s 1
f 8/26/35 19/5/5 18/7/7 1/36/36
f 6/22/37 20/1/1 19/5/5 8/26/35
f 3/40/38 21/33/2 20/1/1 6/22/37
s 4
f 14/24/39 22/19/22 21/2/21 3/21/40
f 24/31/24 23/20/23 13/17/41 4/32/42
s 1
f 25/4/4 24/3/3 4/18/43 5/39/44
f 26/6/6 25/4/4 5/39/44 7/37/45
f 27/29/8 26/6/6 7/37/45 2/30/46
s 2
f 28/10/12 27/8/11 2/11/47 10/14/48
s off
f 17/9/49 28/10/50 10/14/51 11/13/52 12/15/53 13/17/54 23/20/55 22/19/56 14/24/57 15/23/58 16/25/59 9/27/60
g default
v 3.539732 -0.366715 3.507864
v 0.193543 5.784305 3.507864
v 3.539732 -0.366715 -3.507864
v 0.193543 5.784305 -3.507864
v -3.507864 -0.368817 3.507864
v -3.507864 0.368817 3.507864
v 3.507864 0.368817 3.507864
v -3.507864 0.368817 -3.507864
v 3.507864 0.368817 -3.507864
v -3.507864 -0.368817 -3.507864
v 0.193543 5.784305 -3.327427
v 3.539732 -0.366715 -3.327427
v -3.507864 -0.368817 -3.327430
v -3.507864 0.368817 -3.327427
v 0.193543 5.784305 3.271570
v 3.539732 -0.366715 3.271570
v -3.507864 -0.368817 3.271568
v -3.507864 0.368817 3.271570
v 3.394750 0.368817 3.507864
v 3.426104 -0.366749 3.507864
v 3.426101 -0.366749 3.271570
v 3.426101 -0.366749 -3.327427
v 3.426104 -0.366749 -3.507864
v 3.394750 0.368817 -3.507864
v 3.611498 -0.328918 3.507864
v 0.261937 5.821878 3.507864
v 0.261937 5.821878 3.271570
v 0.261937 5.821878 -3.327427
v 0.261937 5.821878 -3.507864
v 3.611498 -0.328918 -3.507864
v 3.611498 -0.328918 -3.327427
v 3.611498 -0.328918 3.271570
v 3.496140 -0.286583 3.507864
v 3.567861 -0.248790 3.507864
v 3.567863 -0.248792 -3.507864
v 3.496140 -0.286583 -3.507864
v -3.354944 0.368817 3.507864
v -3.354249 -0.368771 3.507864
v -3.354249 -0.368771 3.271568
v -3.354249 -0.368771 -3.327430
v -3.354249 -0.368771 -3.507864
v -3.354944 0.368817 -3.507864
v 3.512577 0.260038 -3.507864
v 3.399387 0.260033 -3.507864
v -3.354841 0.259734 -3.507864
v -3.507864 0.259728 -3.507864
v -3.507864 0.259728 -3.327427
v -3.507864 0.259728 3.271569
v -3.507864 0.259728 3.507864
v -3.354841 0.259734 3.507865
v 3.399387 0.260033 3.507864
v 3.512577 0.260038 3.507864
v 0.265672 5.651717 -3.507864
v 0.334141 5.689292 -3.507864
v 0.334139 5.689295 3.507864
v 0.265672 5.651717 3.507864
v 3.394863 0.368817 -3.507864
v 3.399500 0.260033 -3.507864
v 3.426218 -0.366749 -3.507864
v 3.426214 -0.366749 -3.327427
v 3.426214 -0.366749 3.271570
v 3.426218 -0.366749 3.507864
v 3.399500 0.260033 3.507864
v 3.394863 0.368817 3.507864
v 4.096565 0.029809 3.507864
v 0.838850 5.966311 3.507864
v 4.140525 -0.050298 3.507864
v 4.140525 -0.050298 3.271569
v 4.140525 -0.050298 -3.327429
v 4.140525 -0.050298 -3.507864
v 4.096566 0.029807 -3.507864
v 0.838851 5.966308 -3.507864
v 0.766113 6.098859 -3.507864
v 0.766113 6.098859 -3.327429
v 0.766113 6.098859 3.271569
v 0.766113 6.098859 3.507864
vt 0.337110 0.507192
vt 0.339842 0.505348
vt 0.490567 0.735229
vt 0.487906 0.736962
vt 0.175992 0.262875
vt 0.173261 0.264721
vt 0.016328 0.039100
vt 0.018928 0.037277
vt 0.642783 0.975044
vt 0.645442 0.973314
vt 0.649442 0.979464
vt 0.646783 0.981193
vt 0.178111 0.265920
vt 0.182218 0.271998
vt 0.179486 0.273844
vt 0.175379 0.267766
vt 0.875856 0.172498
vt 0.876591 0.172951
vt 0.876596 0.172955
vt 0.875859 0.172500
vt 0.490155 0.327128
vt 0.490056 0.327373
vt 0.490057 0.327369
vt 0.490156 0.327125
vt 0.500557 0.337987
vt 0.487345 0.339566
vt 0.487366 0.339546
vt 0.500552 0.337985
vt 0.542547 0.115300
vt 0.547859 0.113309
vt 0.549895 0.117499
vt 0.545716 0.117866
vt 0.496510 0.750145
vt 0.499170 0.748415
vt 0.332429 0.494286
vt 0.329697 0.496132
vt 0.874332 0.191474
vt 0.874326 0.191473
vt 0.709020 0.044443
vt 0.710099 0.049431
vt 0.493932 0.740362
vt 0.491272 0.742092
vt 0.337808 0.502246
vt 0.335075 0.504092
vt 0.888673 0.182534
vt 0.888633 0.182540
vt 0.714875 0.045397
vt 0.716116 0.050425
vt 0.720897 0.053712
vt 0.719422 0.049088
vt 0.915239 0.479663
vt 0.906030 0.480883
vt 0.646724 0.551291
vt 0.638065 0.555881
vt 0.539557 0.118656
vt 0.543080 0.121894
vt 0.359975 0.491749
vt 0.510183 0.722460
vt 0.513537 0.727611
vt 0.518775 0.735664
vt 0.665047 0.960563
vt 0.669047 0.966713
vt 0.196119 0.249268
vt 0.038093 0.023840
vt 0.198252 0.252310
vt 0.202359 0.258387
vt 0.352570 0.480676
vt 0.357948 0.488635
vt 0.905177 0.488414
vt 0.913447 0.485533
vt 0.647489 0.558285
vt 0.641744 0.560360
vt 0.519488 0.100204
vt 0.524750 0.095073
vt 0.530922 0.089470
vt 0.695756 0.019004
vt 0.706773 0.019485
vt 0.714235 0.020211
vt 0.012824 0.034062
vt 0.015421 0.032240
vt 0.034564 0.018807
vt 0.489797 0.328628
vt 0.489995 0.327754
vt 0.488232 0.335680
vt 0.489505 0.338452
vt 0.498765 0.335247
vt 0.868574 0.191219
vt 0.884294 0.184632
vt 0.877122 0.173492
vt 0.883668 0.178650
vt 0.876439 0.172876
vn 0.000000 0.000000 1.000000
vn -0.000000 -0.000000 1.000000
vn -0.000000 -0.000000 1.000000
vn 0.000000 0.000000 1.000000
vn 0.000000 0.000000 -1.000000
vn 0.000000 0.000001 -1.000000
vn 0.000000 0.000001 -1.000000
vn 0.000000 0.000000 -1.000000
vn -0.481495 0.876449 0.000000
vn -0.481497 0.876448 0.000000
vn -0.481497 0.876448 0.000000
vn -0.481495 0.876449 0.000000
vn 0.465988 -0.884791 0.000000
vn 0.465988 -0.884791 0.000000
vn 0.465986 -0.884792 0.000000
vn 0.465987 -0.884792 0.000000
vn 0.000000 0.000002 1.000000
vn -0.000000 -0.000000 1.000000
vn 0.000005 0.000000 1.000000
vn 0.000002 0.000001 1.000000
vn 0.000000 0.000001 -1.000000
vn -0.000002 -0.000000 -1.000000
vn 0.000000 0.000000 -1.000000
vn 0.000000 0.000000 -1.000000
vn 0.000298 -1.000000 -0.000000
vn 0.000298 -1.000000 -0.000000
vn 0.000298 -1.000000 0.000000
vn 0.000298 -1.000000 0.000000
vn -1.000000 -0.000000 0.000001
vn -1.000000 0.000000 0.000000
vn -1.000000 0.000000 0.000000
vn -1.000000 0.000003 0.000001
vn -0.481495 0.876449 0.000000
vn -0.481497 0.876448 0.000000
vn 0.465988 -0.884791 0.000000
vn 0.465987 -0.884792 0.000000
vn 0.000298 -1.000000 0.000000
vn 0.000298 -1.000000 0.000000
vn -1.000000 0.000000 0.000000
vn -1.000000 0.000000 0.000000
vn -0.481497 0.876448 0.000000
vn -0.481495 0.876449 0.000000
vn 0.465988 -0.884791 0.000000
vn 0.465988 -0.884791 0.000000
vn 0.000298 -1.000000 0.000000
vn 0.000298 -1.000000 0.000000
vn -1.000000 0.000000 0.000000
vn -1.000000 0.000000 0.000000
vn 0.000000 0.000002 1.000000
vn -0.000000 0.000000 1.000000
vn 0.000298 -1.000000 0.000000
vn 0.000298 -1.000000 0.000000
vn 0.000298 -1.000000 -0.000000
vn 0.000298 -1.000000 -0.000000
vn 0.000000 0.000000 -1.000000
vn 0.000000 0.000000 -1.000000
vn -0.000000 -0.000000 1.000000
vn -0.000000 -0.000000 1.000000
vn -0.481497 0.876448 0.000000
vn -0.481497 0.876448 0.000000
vn -0.481497 0.876448 0.000000
vn -0.481497 0.876448 0.000000
vn 0.000000 0.000000 -1.000000
vn 0.000000 0.000000 -1.000000
vn 0.465988 -0.884791 0.000000
vn 0.465988 -0.884791 0.000000
vn 0.465988 -0.884791 0.000000
vn 0.465988 -0.884791 0.000000
vn -0.000001 -0.000000 1.000000
vn 0.000002 0.000000 1.000000
vn -0.000001 -0.000000 1.000000
vn 0.000000 0.000000 -1.000000
vn 0.000000 0.000000 -1.000000
vn 0.000004 0.000000 -1.000000
vn 0.000000 -0.000000 1.000000
vn 0.000000 0.000001 1.000000
vn 0.000298 -1.000000 0.000000
vn 0.000298 -1.000000 0.000000
vn 0.000298 -1.000000 0.000000
vn 0.000298 -1.000000 0.000000
vn 0.000000 0.000001 -1.000000
vn 0.000000 -0.000000 -1.000000
vn 0.000000 0.000000 -1.000000
vn -0.000002 -0.000000 -1.000000
vn 0.000000 -0.000000 -1.000000
vn 0.000000 -0.000000 -1.000000
vn -1.000000 -0.000001 0.000001
vn -1.000000 0.000001 0.000000
vn -1.000000 0.000001 0.000000
vn -1.000000 0.000000 0.000000
vn 0.000000 -0.000000 1.000000
vn -0.000000 -0.000000 1.000000
vn -0.000000 -0.000000 1.000000
vn 0.000005 -0.000000 1.000000
vn 0.000003 0.000000 -1.000000
vn 0.000001 -0.000001 -1.000000
vn 0.000001 -0.000001 -1.000000
vn -0.000001 -0.000000 1.000000
vn -0.000001 -0.000000 1.000000
vn 0.000000 0.000000 1.000000
vn -0.000000 -0.000000 -1.000000
vn 0.000000 0.000001 -1.000000
vn -0.000000 -0.000000 -1.000000
vn 0.000298 -1.000000 0.000000
vn 0.000298 -1.000000 0.000000
vn 0.000298 -1.000000 0.000000
vn 0.000298 -1.000000 0.000000
vn 0.000006 0.000000 1.000000
vn 0.000007 -0.000000 1.000000
vn 0.000002 0.000001 1.000000
s 1
g pizzaBox polySurface1
usemtl aiStandardSurface1SG
f 61/41/61 62/42/62 83/43/63 84/44/64
s 2
f 63/45/65 64/46/66 81/47/67 82/48/68
s 3
f 39/49/69 56/50/70 57/51/71 32/52/72
s 4
f 58/53/73 59/54/74 40/55/75 31/56/76
s 5
f 47/57/77 79/58/78 91/59/79 92/60/80
s 6
f 85/61/81 86/62/82 72/63/83 52/64/84
s 7
f 50/65/85 51/66/86 87/67/87 88/68/88
s 8
f 74/69/89 75/70/90 42/71/91 36/72/92
s 3
f 43/73/93 55/74/94 56/50/70 39/49/69
s 4
f 40/55/75 59/54/74 60/75/95 44/76/96
s 7
f 49/77/97 50/65/85 88/68/88 89/78/98
s 8
f 42/71/91 75/70/90 76/79/99 46/80/100
s 3
f 54/81/101 55/74/94 43/73/93 30/82/102
s 4
f 44/76/96 60/75/95 53/83/103 29/84/104
s 7
f 48/85/105 49/77/97 89/78/98 90/86/106
s 8
f 46/80/100 76/79/99 77/87/107 34/88/108
s 5
f 65/89/109 78/90/110 79/58/78 47/57/77
s 7
f 66/91/111 67/92/112 49/77/97 48/85/105
f 67/92/112 68/93/113 50/65/85 49/77/97
f 68/93/113 69/94/114 51/66/86 50/65/85
s 6
f 72/63/83 73/95/115 70/96/116 52/64/84
s 1
f 62/42/62 93/97/117 94/98/118 83/43/63
s 3
f 104/99/119 103/100/120 55/74/94 54/81/101
f 56/50/70 55/74/94 103/100/120 102/101/121
f 57/51/71 56/50/70 102/101/121 101/102/122
s 2
f 99/103/123 63/45/65 82/48/68 100/104/124
s 4
f 98/105/125 97/106/126 59/54/74 58/53/73
f 60/75/95 59/54/74 97/106/126 96/107/127
f 53/83/103 60/75/95 96/107/127 95/108/128
s 1
f 53/83/129 62/42/62 61/41/61 29/84/130
f 95/108/131 93/97/117 62/42/62 53/83/129
s 2
f 58/53/132 63/45/65 99/103/123 98/105/133
f 31/56/134 64/46/66 63/45/65 58/53/132
s 5
f 77/87/135 78/90/110 65/89/109 34/88/136
s 7
f 45/109/137 67/92/112 66/91/111 33/110/138
f 41/111/139 68/93/113 67/92/112 45/109/137
f 38/112/140 69/94/114 68/93/113 41/111/139
s 6
f 36/72/141 70/96/116 73/95/115 74/69/142
f 51/66/143 72/63/83 86/62/82 87/67/144
f 69/113/145 73/95/115 72/63/83 51/66/143
f 74/69/142 73/95/115 69/113/145 38/114/146
s 8
f 38/114/147 41/115/148 75/70/90 74/69/89
f 76/79/99 75/70/90 41/115/148 45/116/149
f 77/87/107 76/79/99 45/116/149 33/117/150
s 5
f 33/117/151 66/118/152 78/90/110 77/87/135
f 79/58/78 78/90/110 66/118/152 48/85/153
f 90/86/154 91/59/79 79/58/78 48/85/153
s 2
f 82/48/68 81/47/67 32/119/155 57/120/156
f 100/104/124 82/48/68 57/120/156 101/121/157
s 1
f 83/43/63 94/98/118 104/99/158 54/81/159
f 84/44/64 83/43/63 54/81/159 30/82/160
s 6
f 71/122/161 86/62/82 85/61/81 37/123/162
f 87/67/144 86/62/82 71/122/161 31/124/163
s 7
f 88/68/88 87/67/87 31/125/164 40/126/165
f 89/78/98 88/68/88 40/126/165 44/127/166
f 90/86/106 89/78/98 44/127/166 29/128/167
s 5
f 80/129/168 91/59/79 90/86/154 29/130/169
f 92/60/80 91/59/79 80/129/168 35/131/170
